<svg width="130" height="28" viewBox="0 0 130 28" fill="none" xmlns="http://www.w3.org/2000/svg">
<path d="M16.8672 23.3086V27H3.63965V23.3086H16.8672ZM5.0752 2.11719V27H0.375488V2.11719H5.0752ZM15.1411 12.3882V15.9941H3.63965V12.3882H15.1411ZM16.8159 2.11719V5.82568H3.63965V2.11719H16.8159ZM35.0419 18.814H39.7416C39.6163 20.4774 39.1549 21.9528 38.3573 23.2402C37.5598 24.5163 36.449 25.5189 35.0248 26.248C33.6007 26.9772 31.8746 27.3418 29.8466 27.3418C28.2857 27.3418 26.8786 27.0684 25.6254 26.5215C24.3835 25.9632 23.3183 25.1714 22.4296 24.146C21.5523 23.1092 20.8801 21.8674 20.413 20.4204C19.9459 18.9621 19.7123 17.3271 19.7123 15.5156V13.6187C19.7123 11.8071 19.9516 10.1722 20.4301 8.71387C20.9086 7.25553 21.5922 6.01367 22.4809 4.98828C23.3809 3.9515 24.4576 3.15397 25.7108 2.5957C26.9755 2.03743 28.3882 1.7583 29.9491 1.7583C31.9771 1.7583 33.6918 2.13428 35.0932 2.88623C36.4945 3.62679 37.5826 4.64648 38.3573 5.94531C39.1321 7.24414 39.5992 8.73665 39.7587 10.4229H35.059C34.9678 9.37467 34.74 8.486 34.3754 7.75684C34.0222 7.02767 33.4867 6.4751 32.7689 6.09912C32.0626 5.71175 31.1226 5.51807 29.9491 5.51807C29.0377 5.51807 28.2344 5.68896 27.5395 6.03076C26.8559 6.37256 26.2862 6.88525 25.8305 7.56885C25.3747 8.24105 25.0329 9.08415 24.8051 10.0981C24.5772 11.1007 24.4633 12.2629 24.4633 13.5845V15.5156C24.4633 16.7803 24.5658 17.9139 24.7709 18.9165C24.976 19.9191 25.295 20.7679 25.7279 21.4629C26.1609 22.1579 26.7191 22.6877 27.4027 23.0522C28.0863 23.4168 28.9009 23.5991 29.8466 23.5991C30.9973 23.5991 31.9315 23.4168 32.6493 23.0522C33.3785 22.6877 33.9311 22.1522 34.307 21.4458C34.6944 20.7394 34.9394 19.8621 35.0419 18.814Z" fill="#FBDB28"/>
<path d="M62.1799 15.3618H55.8737L55.8396 12.7129H61.5646C62.5103 12.7129 63.3363 12.5534 64.0427 12.2344C64.7491 11.9154 65.2959 11.4596 65.6833 10.8672C66.0821 10.2633 66.2814 9.54557 66.2814 8.71387C66.2814 7.80241 66.1048 7.06185 65.7517 6.49219C65.4099 5.91113 64.8801 5.48958 64.1623 5.22754C63.4559 4.9541 62.5559 4.81738 61.4621 4.81738H56.6086V27H53.3103V2.11719H61.4621C62.7382 2.11719 63.8775 2.24821 64.8801 2.51025C65.8827 2.7609 66.7315 3.15967 67.4265 3.70654C68.1328 4.24202 68.6683 4.92562 69.0329 5.75732C69.3975 6.58903 69.5798 7.58594 69.5798 8.74805C69.5798 9.77344 69.3177 10.702 68.7937 11.5337C68.2696 12.354 67.5404 13.0262 66.6062 13.5503C65.6833 14.0744 64.6009 14.4105 63.3591 14.5586L62.1799 15.3618ZM62.0261 27H54.5749L56.4377 24.3169H62.0261C63.0743 24.3169 63.9629 24.1346 64.6921 23.77C65.4326 23.4054 65.9966 22.8927 66.384 22.2319C66.7714 21.5597 66.965 20.7679 66.965 19.8564C66.965 18.9336 66.7998 18.1361 66.4694 17.4639C66.139 16.7917 65.6206 16.2733 64.9143 15.9087C64.2079 15.5441 63.2964 15.3618 62.1799 15.3618H57.4802L57.5144 12.7129H63.9401L64.6408 13.6699C65.8371 13.7725 66.8511 14.1143 67.6828 14.6953C68.5145 15.265 69.1468 15.9941 69.5798 16.8828C70.0241 17.7715 70.2463 18.7513 70.2463 19.8223C70.2463 21.3717 69.9045 22.682 69.2209 23.7529C68.5487 24.8125 67.5974 25.6214 66.3669 26.1797C65.1364 26.7266 63.6895 27 62.0261 27ZM85.8917 23.8384V14.3193C85.8917 13.5902 85.7436 12.9578 85.4474 12.4224C85.1625 11.8755 84.7296 11.4539 84.1485 11.1577C83.5675 10.8615 82.8497 10.7134 81.9952 10.7134C81.1977 10.7134 80.497 10.8501 79.8932 11.1235C79.3007 11.397 78.8336 11.7559 78.4918 12.2002C78.1614 12.6445 77.9962 13.123 77.9962 13.6357H74.8346C74.8346 12.9749 75.0055 12.3198 75.3473 11.6704C75.6891 11.021 76.179 10.4342 76.817 9.91016C77.4664 9.37467 78.2411 8.95312 79.1412 8.64551C80.0527 8.3265 81.0667 8.16699 82.1832 8.16699C83.5276 8.16699 84.7125 8.39486 85.7379 8.85059C86.7747 9.30632 87.5836 9.99561 88.1646 10.9185C88.7571 11.8299 89.0533 12.9749 89.0533 14.3535V22.9668C89.0533 23.582 89.1046 24.2371 89.2071 24.9321C89.3211 25.6271 89.4863 26.2253 89.7027 26.7266V27H86.4044C86.2449 26.6354 86.1196 26.1512 86.0284 25.5474C85.9373 24.9321 85.8917 24.3625 85.8917 23.8384ZM86.4386 15.7891L86.4728 18.0107H83.277C82.3769 18.0107 81.5737 18.0848 80.8673 18.2329C80.1609 18.3696 79.5685 18.5804 79.0899 18.8652C78.6114 19.1501 78.2468 19.509 77.9962 19.9419C77.7455 20.3634 77.6202 20.859 77.6202 21.4287C77.6202 22.0098 77.7512 22.5396 78.0133 23.0181C78.2753 23.4966 78.6684 23.8783 79.1925 24.1631C79.728 24.4365 80.3831 24.5732 81.1578 24.5732C82.1262 24.5732 82.9807 24.3682 83.7213 23.958C84.4619 23.5479 85.0486 23.0465 85.4815 22.4541C85.9259 21.8617 86.1651 21.2863 86.1993 20.728L87.5494 22.249C87.4697 22.7275 87.2532 23.2573 86.9 23.8384C86.5468 24.4194 86.074 24.9777 85.4815 25.5132C84.9005 26.0373 84.2055 26.4759 83.3966 26.8291C82.5991 27.1709 81.699 27.3418 80.6964 27.3418C79.4431 27.3418 78.3437 27.0968 77.398 26.6069C76.4638 26.117 75.7346 25.4619 75.2105 24.6416C74.6979 23.8099 74.4415 22.8813 74.4415 21.856C74.4415 20.8647 74.6352 19.9932 75.0226 19.2412C75.4099 18.4779 75.9682 17.8455 76.6974 17.3442C77.4265 16.8315 78.3038 16.4442 79.3292 16.1821C80.3546 15.9201 81.4996 15.7891 82.7643 15.7891H86.4386ZM97.5381 12.4565V27H94.3765V8.50879H97.3672L97.5381 12.4565ZM96.7861 17.0537L95.4702 17.0024C95.4816 15.7378 95.6696 14.57 96.0342 13.499C96.3988 12.4167 96.9115 11.4767 97.5723 10.6792C98.2331 9.88167 99.0192 9.26644 99.9307 8.8335C100.854 8.38916 101.873 8.16699 102.99 8.16699C103.901 8.16699 104.722 8.29232 105.451 8.54297C106.18 8.78223 106.801 9.1696 107.313 9.70508C107.838 10.2406 108.236 10.9355 108.51 11.79C108.783 12.6331 108.92 13.6642 108.92 14.8833V27H105.741V14.8491C105.741 13.8807 105.599 13.106 105.314 12.5249C105.029 11.9325 104.613 11.5052 104.066 11.2432C103.52 10.9697 102.847 10.833 102.05 10.833C101.264 10.833 100.546 10.9982 99.8965 11.3286C99.2585 11.659 98.7059 12.1147 98.2388 12.6958C97.783 13.2769 97.4242 13.9434 97.1621 14.6953C96.9115 15.4359 96.7861 16.222 96.7861 17.0537ZM117.251 0.75V27H114.072V0.75H117.251ZM128.547 8.50879L120.481 17.1392L115.969 21.8218L115.713 18.4551L118.943 14.5928L124.685 8.50879H128.547ZM125.659 27L119.062 18.1816L120.703 15.3618L129.385 27H125.659Z" fill="#32325C"/>
</svg>
